<?xml version="1.0" encoding="UTF-8"?>
<svg id="Layer_1" data-name="Layer 1" xmlns="http://www.w3.org/2000/svg" viewBox="0 0 1200 540">
  <defs>
    <style>
      .cls-1 {
        fill: #ee2a44;
      }

      .cls-2 {
        fill: #fff;
      }

      .cls-3 {
        fill: #0f6b4f;
      }
    </style>
  </defs>
  <g>
    <path class="cls-2" d="M162.71,98.51c20.74,31.2,41.06,62.71,61.64,94.03,3.64,5.7,7.56,11.23,10.98,17.08-25.78,49.57-42.98,103.42-52.81,158.35-9.33.01-18.66,0-27.99,0,0-6.39-.01-12.77,0-19.16,3.7.01,7.4.01,11.11.01,6.01-22.23,10.43-44.92,17.9-66.73-8.95,4.71-18.75,8.16-28.98,7.96-.06-6.28,0-12.55-.05-18.83,16.5.72,32.7-12.79,33.14-29.64,1.01-15.03-10.69-28.59-24.99-31.95.01-37.04-.09-74.07.05-111.11Z"/>
    <path class="cls-2" d="M.94,169.88c52.52-.18,105.05.09,157.57-.2-.01,14.39.01,28.8-.01,43.19,7.98,1.61,15.91,5.46,20.46,12.46,4.79,7.16,6.42,16.94,2.26,24.76-5.26,10.15-16.91,15.69-28.01,15.95-8.46.02-16.91.01-25.37,0-9.62-14.81-32.84-16.29-44.82-3.59-4.74-4.12-10.6-7.2-16.98-7.52-8.37-.22-16.75.07-25.12-.13-.25,20-.02,39.99-.11,59.99,37.85-.02,75.7-.27,113.55-.13,0-1.89-.01-3.76-.02-5.64-12.19-.32-24.41.4-36.57-.39,3.97-1.73,7.06-4.84,9.69-8.2,8.93-.23,17.85-.22,26.79-.17-.01-2.04-.02-4.07-.02-6.09,7.66.07,15.3-1.41,22.4-4.29-5.36,18.12-9.27,36.64-14.28,54.87-3.97-.1-7.96-.07-11.93-.07-.01,2.45-.01,4.9-.02,7.37-36.52-.09-73.04.09-109.56.16v5.49c36.53.05,73.07-.04,109.6.04-.04,2.91-.04,5.8-.02,8.7-36.48-.04-72.98.09-109.47-.06-.07,1.91-.1,3.81-.13,5.74,86.04.11,172.06-.22,258.1-.16-.01-1.89-.01-3.78-.01-5.66-37.28-.11-74.56.16-111.85.16.53-2.92,1.05-5.84,1.61-8.74,36.74.1,73.48-.16,110.23-.15.01-1.85.01-3.69.02-5.52-36.37-.01-72.76,0-109.14-.01.61-2.89,1.21-5.79,1.81-8.68,35.72-.12,71.45,0,107.16-.06,0-1.89-.01-3.78,0-5.66-35.27.01-70.54.01-105.81,0,.69-2.92,1.39-5.82,2.1-8.73,34.52.01,69.03-.01,103.55.01v-5.54c-34.05.01-68.09.02-102.14,0,.78-2.91,1.58-5.81,2.37-8.7,33.21-.05,66.42,0,99.63-.02,0-1.89-.01-3.78-.01-5.66h-97.98c.86-2.93,1.73-5.85,2.66-8.75,31.78.04,63.57,0,95.34.02-.02-1.92-.04-3.84-.07-5.74-31.2.05-62.39.27-93.59.22.96-2.92,1.89-5.82,2.83-8.74,30.22-.02,60.45.1,90.67-.15-.01-1.84-.01-3.69-.01-5.52-29.57-.01-59.14,0-88.71-.01,1.01-2.92,2.05-5.82,3.09-8.73,28.55,0,57.11,0,85.66-.01-.04-1.89-.07-3.78-.12-5.65-27.84.1-55.68-.23-83.51.17,6.72-18.56,15.21-36.39,23.76-54.14.21.55.64,1.63.86,2.18,18.89-.05,37.78,0,56.68-.04-.1-2.39-.15-4.79-.17-7.18-19.1-.01-38.19.01-57.29-.01-7.85-12.54-16.21-24.76-24.16-37.23,40.38.01,80.77.01,121.15,0,.63,71.39.67,142.78,1.58,214.16-.32,6.9,5.08,12.12,11.13,14.37-110.8-.25-221.59.34-332.4.05-7.54-.05-13.74-6.94-13.31-14.39-.63-71.33-.94-142.65-1.54-213.97ZM41.29,207.07c-.01,2.33-.02,4.66-.05,6.99,18.99.06,37.97.13,56.95-.04-.05-2.37-.06-4.74-.07-7.11-18.94.22-37.88.15-56.82.16ZM150.83,220.91c-8.68,1.96-15.41,10.38-15.04,19.35-.27,10.96,10.21,20.31,21.03,19.37,11.39-.16,20.94-11.71,18.61-22.95-1.61-11.13-13.85-18.73-24.59-15.77ZM40.83,329.05c37.85-.01,75.7,0,113.55,0v-5.68c-37.85-.01-75.69.01-113.54-.01-.01,1.89-.01,3.79-.01,5.69ZM40.84,337.78c-.02,1.85-.04,3.71-.07,5.59,37.92.31,75.84-.17,113.77-.07-.01-1.84-.01-3.68-.01-5.52-37.89,0-75.79.01-113.68,0Z"/>
    <path class="cls-2" d="M368.61,178.87c13.19-.01,26.4,0,39.59-.01,8.95-.01,18.45.7,26.15,5.74,10.4,6.63,16.08,18.71,17.59,30.64,2.19,16.13.25,33.73-9.16,47.42-6.35,9.34-17.38,14.98-28.63,15.19-15.19.04-30.38.04-45.56-.01.02-32.99,0-65.98.01-98.96ZM390.21,197.71c.02,20.49-.01,40.97.01,61.46,6.76-.09,13.52.13,20.28-.09,6.35-.36,12.16-4.34,15.07-9.94,5.39-10.11,5.43-22.15,3.84-33.22-1.1-6.6-3.76-14.25-10.75-16.56-9.15-3.06-18.99-1.08-28.44-1.64Z"/>
    <path class="cls-2" d="M459.33,178.87c7.32.04,14.65-.12,21.97.09-.12,12.33-.02,24.67-.05,36.99,12,.01,24,.01,36.01,0v-37.07c7.31-.01,14.6-.01,21.91,0,0,32.99.01,65.99,0,99-7.29,0-14.58-.04-21.87.02-.1-14.47,0-28.93-.05-43.4-11.99-.01-23.98.05-35.96-.04-.1,14.47-.02,28.93-.05,43.4-7.32-.02-14.64.07-21.94-.05.09-32.98,0-65.96.04-98.94Z"/>
    <path class="cls-2" d="M542.87,277.85c11.79-33,23.53-66.02,35.36-99,8.03-.02,16.06.1,24.09-.09,11.94,32.95,23.42,66.07,35.17,99.08-8.02,0-16.02.01-24.03,0-2.11-6.63-4.28-13.25-6.36-19.89-11.46-.07-22.93.02-34.39-.06-2.22,6.64-4.43,13.29-6.6,19.96-7.75-.01-15.5,0-23.24-.01ZM578.79,239.4h22.32c-3.62-11.4-7.37-22.77-10.92-34.19-4.01,11.33-7.55,22.8-11.4,34.19Z"/>
    <path class="cls-2" d="M641.24,178.87c7.25-.01,14.5-.01,21.75,0,.01,12.88-.01,25.77.01,38.65,12.08-12.77,23.96-25.75,36.14-38.41,9.61-.6,19.35-.1,29.01-.22-13.61,13.68-27.34,27.25-40.86,41.03,13.03,17.7,25.84,35.59,39.08,53.13,10.53-31.58,22.29-62.78,33.32-94.2,8.07.28,16.38-.54,24.31.39,11.77,32.83,23.32,65.74,34.94,98.62-8.01-.02-16,.01-24-.02-2.12-6.62-4.29-13.22-6.35-19.85-11.48-.12-22.95-.01-34.43-.06-2.23,6.63-4.35,13.3-6.61,19.93-15.42,0-30.85-.02-46.26.01-9.89-13.9-19.68-27.89-29.55-41.81-2.99,2.94-5.88,5.98-8.78,9.01.04,10.92.01,21.85.01,32.78-7.26-.01-14.5-.01-21.75,0-.01-33,0-66.01,0-99ZM760.31,239.41c7.42-.02,14.85,0,22.28-.01-3.62-11.46-7.44-22.85-10.94-34.35-3.85,11.43-7.63,22.89-11.34,34.36Z"/>
    <path class="cls-2" d="M43.89,257.79c6.99.02,13.98-.02,20.96,0,6.15-.06,12.04,2.72,16.48,6.89-2.49,3.3-4.34,7.01-5.5,10.98-1.89-3.11-4.83-5.73-8.51-6.39-3.9-.59-7.86-.22-11.79-.29.02,9.34-.01,18.7.02,28.05,4.56-.15,9.29.49,13.69-1.01,2.83-.97,4.78-3.33,6.64-5.54,1.14,3.92,3,7.58,5.44,10.86-4.29,3.74-9.59,6.47-15.35,6.74-7.37.28-14.74.04-22.09.11-.01-16.8-.01-33.6,0-50.41Z"/>
    <path class="cls-2" d="M81.44,269.08c4.71-8.26,14.41-12.91,23.78-12.36,8.25.23,16.12,4.73,20.55,11.68-3.31,1.95-6.64,3.85-9.94,5.82-4.55-6.93-14.99-8.16-21.32-3.04-7.01,5.79-6.84,18.29.38,23.82,6.36,4.68,16.51,3.51,20.9-3.33,3.33,1.92,6.68,3.84,9.99,5.84-7.78,12.77-26.86,15.39-38.32,6.18-10.3-7.91-12.57-23.65-6.02-34.61Z"/>
    <path class="cls-2" d="M673.67,284.13c11.61-1.8,24.08-1.25,34.73,4.11,11.48,6.14,19.48,17.8,22.09,30.45,2.56,12.19,2.46,25.07-.93,37.1-3.91,13.72-14.41,26.16-28.48,29.99-10.37,2.84-21.55,2.86-31.96.18-14.47-3.68-25.34-16.38-29.26-30.45-3.58-13.15-3.54-27.34.11-40.48,4.29-15.47,17.52-28.63,33.7-30.89ZM678.01,303.11c-7.01,1.79-12.66,7.31-15.43,13.9-3.52,8.29-3.78,17.57-2.82,26.4.97,8.67,4.87,17.64,12.64,22.25,9.33,5.41,22.59,4.07,29.84-4.25,6.14-6.91,7.82-16.59,7.83-25.56.07-9.29-1.64-19.36-8.13-26.44-5.88-6.56-15.61-8.5-23.93-6.29Z"/>
    <path class="cls-2" d="M1121.33,289.07c8.14-4.88,17.94-5.98,27.25-5.65,10.71.42,21.72,4.36,29.04,12.44,5.16,5.73,7.12,13.52,7.4,21.06-7.11.02-14.21.01-21.3,0-.43-3.98-1.51-8.28-4.9-10.8-5.6-4.25-13.24-4.61-19.95-3.57-4.71.78-10.09,3.53-10.91,8.7-1.01,3.9,1.37,8.04,5.15,9.34,11.98,4.47,24.91,5.69,36.99,9.93,6.36,2.24,12.42,6.42,15.29,12.73,4.99,10.91,2.89,24.96-5.82,33.41-8.24,8.58-20.69,11.1-32.16,11.06-11.81-.06-24.54-2.66-33.19-11.28-6.23-5.91-8.79-14.64-8.73-23.04,7.04-.01,14.09.02,21.15-.01.64,5.71,3.1,12,9.02,14.03,8.09,2.78,17.56,2.75,25.43-.78,6.3-2.72,7.82-13.25.98-16.29-13.99-6.34-30.35-5.7-43.85-13.4-7.5-4.4-11.22-13.31-11.01-21.76-.54-10.46,5.14-20.79,14.11-26.11Z"/>
    <path class="cls-2" d="M373.43,302.42c6.17-9.26,16.24-15.83,27.29-17.46,9.77-1.4,20.07-.55,29.19,3.38,12.6,5.44,21.26,18.48,22.06,32.08-7.34.06-14.69.02-22.03.02-1.62-5.53-3.92-11.63-9.39-14.41-7.97-4.13-19.05-3.52-25.27,3.44-6.83,7.4-8.19,18.05-8.24,27.72.13,8.89,1.51,18.71,8.07,25.3,6.62,7,18.4,7.99,26.27,2.59,4.9-3.44,6.9-9.42,8.48-14.92,7.32.01,14.64-.02,21.94.02-1.68,12.09-7.78,23.86-17.98,30.85-9.94,6.88-22.8,8.03-34.43,5.9-9.73-1.75-18.84-7.11-24.74-15.09-7.52-9.86-10.16-22.55-10.2-34.73-.11-12.04,2.1-24.58,8.97-34.71Z"/>
    <path class="cls-2" d="M869.57,297.21c7.07-7.75,17.32-12.24,27.74-12.76,10.35-.55,21.26,1.08,30.04,6.9,9.6,6.44,15.93,17.54,16.54,29.09-7.33.04-14.66.01-21.99.01-1.61-5.55-3.94-11.55-9.34-14.42-6.85-3.46-15.8-3.63-22.28.78-7.61,5.46-10.35,15.2-11.03,24.11-.56,10.24-.27,21.7,6.45,30.09,6.44,8.32,19.58,9.98,28.01,3.8,4.66-3.49,6.57-9.26,8.1-14.63,7.32-.01,14.64-.01,21.96,0-1.67,11.94-7.63,23.55-17.6,30.59-9.72,6.95-22.41,8.25-33.93,6.33-10.18-1.63-19.74-7.15-25.82-15.52-8.35-11.17-10.54-25.68-9.91-39.3.53-12.62,4.16-25.75,13.07-35.07Z"/>
    <path class="cls-2" d="M459.32,286.17c7.31-.06,14.61-.01,21.92-.02,0,12.35.01,24.7,0,37.06,12,.04,23.99-.01,35.99.04.06-12.38-.01-24.75.05-37.12,7.29.04,14.59.01,21.88.01.01,33,0,66.01,0,99-7.31.01-14.6,0-21.91,0v-43.36h-36.01c-.06,14.33.09,28.66-.07,42.99-7.05.89-14.6.11-21.85.37-.01-32.99.01-65.97-.01-98.96Z"/>
    <path class="cls-2" d="M550.67,286.13c16.99.15,34-.27,50.99.21,9.37.07,18.9,4.3,23.78,12.58,8.24,12.1,5.53,32.44-8.66,38.81,3.44,2.45,7.15,5.12,8.56,9.32,3.57,9.46.8,19.77,2.64,29.51.33,2.15,2.1,3.53,3.54,4.97.02.89.06,2.71.09,3.6-8.03.01-16.05,0-24.08.01-2.53-7.58-2.44-15.61-2.48-23.49-.17-3.92-.28-8.26-2.75-11.52-2.7-2.62-6.73-2.89-10.29-3-6.58-.01-13.17.02-19.74.01-.01,12.66-.01,25.33-.01,37.99-7.2,0-14.41.01-21.6,0v-99ZM572.28,304.84c-.01,8.12-.01,16.23,0,24.36,8.19-.11,16.4.23,24.61-.18,4.09-.16,8.78-2,10.11-6.25,2.06-6.07.76-15.25-6.42-17.1-9.33-1.62-18.88-.5-28.3-.82Z"/>
    <path class="cls-2" d="M738.84,286.15c7.58-.02,15.15-.05,22.74.01,12.35,21.64,24.52,43.37,37.05,64.9-.04-21.64-.01-43.29-.01-64.93,6.94,0,13.89-.01,20.84,0-.05,33.02.09,66.02-.06,99.03-7.27-.09-14.53-.04-21.79-.02-12.71-22.09-25.34-44.22-38.07-66.29-.01,22.09,0,44.17-.01,66.26-6.9,0-13.79.01-20.68,0-.01-32.99.01-65.98-.01-98.97Z"/>
    <path class="cls-2" d="M828.19,286.15c7.36-.04,14.71-.01,22.07-.01.04,32.95-.07,65.92.06,98.89-7.37.23-14.75.05-22.12.1-.01-32.99,0-65.98-.01-98.97Z"/>
    <path class="cls-2" d="M951.41,286.13c7.32-.01,14.64.06,21.97-.04.21,26.57.04,53.15.09,79.72,16.2.01,32.39.01,48.59,0,0,6.44-.01,12.87,0,19.31-23.55.01-47.1.01-70.64,0,0-32.99-.01-65.99,0-99Z"/>
    <path class="cls-2" d="M1027.73,286.14c24.35-.02,48.7.02,73.06-.04.07,6.4.01,12.79.04,19.19h-51.49c0,6.23-.01,12.47,0,18.7,15.74.02,31.48-.04,47.22.02-.05,6.23-.02,12.44-.02,18.67-15.73.01-31.47,0-47.2,0,0,7.71-.01,15.42,0,23.15,17.92-.01,35.85,0,53.78-.01.01,6.44,0,12.87.01,19.31-25.16-.04-50.3.1-75.45-.06.1-32.98.01-65.96.05-98.92Z"/>
    <path class="cls-2" d="M74.61,309.03c2.99-1.56,5.82-3.41,8.34-5.66,2.37,2.18,5,4.06,7.7,5.82-5.35-.16-10.69.05-16.04-.16Z"/>
  </g>
  <path class="cls-3" d="M150.83,220.91c10.74-2.97,22.99,4.63,24.59,15.77,2.33,11.24-7.22,22.79-18.61,22.95-10.81.94-21.3-8.41-21.03-19.37-.37-8.96,6.36-17.38,15.04-19.35ZM152.41,229.99c-7.05,1.89-9.86,11.72-4.7,16.96,5.09,6.26,16.55,3.71,18.33-4.23,2.46-7.78-6.08-15.56-13.63-12.73Z"/>
  <path class="cls-1" d="M152.41,229.99c7.55-2.83,16.1,4.94,13.63,12.73-1.78,7.94-13.24,10.49-18.33,4.23-5.16-5.23-2.35-15.07,4.7-16.96Z"/>
</svg>