<?xml version="1.0" encoding="UTF-8"?>
<svg id="Layer_2" data-name="Layer 2" xmlns="http://www.w3.org/2000/svg" viewBox="0 0 283.25 244.56">
  <defs>
    <style>
      .cls-1 {
        fill: #ee2a44;
      }

      .cls-2 {
        fill: #fff;
      }

      .cls-3 {
        fill: #0f6b4f;
      }
    </style>
  </defs>
  <g id="Layer_1-2" data-name="Layer 1">
    <path class="cls-2" d="M131.95,0c16.92,25.45,33.49,51.15,50.28,76.7,2.97,4.65,6.17,9.16,8.96,13.93-21.03,40.43-35.06,84.36-43.08,129.16-7.61.01-15.22,0-22.83,0,0-5.21-.01-10.42,0-15.63,3.02.01,6.04.01,9.06.01,4.9-18.13,8.51-36.64,14.6-54.43-7.3,3.84-15.29,6.66-23.64,6.49-.05-5.12,0-10.24-.04-15.36,13.46.59,26.67-10.43,27.03-24.18.82-12.26-8.72-23.32-20.38-26.06,0-30.21-.07-60.42.04-90.63Z"/>
    <path class="cls-2" d="M0,58.22c42.84-.15,85.69.07,128.53-.16-.01,11.74,0,23.49-.01,35.23,6.51,1.31,12.98,4.45,16.69,10.16,3.91,5.84,5.24,13.82,1.84,20.2-4.29,8.28-13.79,12.8-22.85,13.01-6.9.02-13.79.01-20.69,0-7.85-12.08-26.79-13.29-36.56-2.93-3.87-3.36-8.65-5.87-13.85-6.13-6.83-.18-13.66.06-20.49-.11-.2,16.31-.02,32.62-.09,48.93,30.87-.02,61.75-.22,92.62-.11,0-1.54,0-3.07-.02-4.6-9.94-.26-19.91.33-29.83-.32,3.24-1.41,5.76-3.95,7.9-6.69,7.28-.19,14.56-.18,21.85-.14,0-1.66-.02-3.32-.02-4.97,6.25.06,12.48-1.15,18.27-3.5-4.37,14.78-7.56,29.89-11.65,44.76-3.24-.08-6.49-.06-9.73-.06-.01,2-.01,4-.02,6.01-29.79-.07-59.58.07-89.37.13v4.48c29.8.04,59.6-.03,89.4.03-.03,2.37-.03,4.73-.02,7.1-29.76-.03-59.53.07-89.29-.05-.06,1.56-.08,3.11-.11,4.68,70.18.09,140.35-.18,210.53-.13-.01-1.54-.01-3.08-.01-4.62-30.41-.09-60.82.13-91.23.13.43-2.38.86-4.76,1.31-7.13,29.97.08,59.94-.13,89.91-.12,0-1.51,0-3.01.02-4.5-29.67-.01-59.35,0-89.02-.01.5-2.36.99-4.72,1.48-7.08,29.14-.1,58.28,0,87.41-.05,0-1.54-.01-3.08,0-4.62-28.77.01-57.54.01-86.31,0,.56-2.38,1.13-4.75,1.71-7.12,28.16.01,56.31-.01,84.46.01v-4.52c-27.77.01-55.54.02-83.31,0,.64-2.37,1.29-4.74,1.93-7.1,27.09-.04,54.18,0,81.27-.02,0-1.54-.01-3.08-.01-4.62h-79.92c.7-2.39,1.41-4.77,2.17-7.14,25.92.03,51.85,0,77.77.02-.02-1.57-.03-3.13-.06-4.68-25.45.04-50.89.22-76.34.18.78-2.38,1.54-4.75,2.31-7.13,24.65-.02,49.31.08,73.96-.12-.01-1.5-.01-3.01-.01-4.5-24.12-.01-48.24,0-72.36-.01.82-2.38,1.67-4.75,2.52-7.12,23.29,0,46.58,0,69.87-.01-.03-1.54-.06-3.08-.1-4.61-22.71.08-45.42-.19-68.12.14,5.48-15.14,12.41-29.68,19.38-44.16.17.45.52,1.33.7,1.78,15.41-.04,30.82,0,46.23-.03-.08-1.95-.12-3.91-.14-5.86-15.58-.01-31.15.01-46.73-.01-6.4-10.23-13.22-20.2-19.71-30.37,32.94.01,65.88.01,98.82,0,.51,58.23.55,116.46,1.29,174.69-.26,5.63,4.14,9.89,9.08,11.72-90.38-.2-180.75.28-271.13.04-6.15-.04-11.21-5.66-10.86-11.74C.75,174.57.49,116.39,0,58.22ZM32.91,88.55c-.01,1.9-.02,3.8-.04,5.7,15.49.05,30.97.11,46.45-.03-.04-1.93-.05-3.87-.06-5.8-15.45.18-30.9.12-46.35.13ZM122.26,99.84c-7.08,1.6-12.57,8.47-12.27,15.78-.22,8.94,8.33,16.57,17.15,15.8,9.29-.13,17.08-9.55,15.18-18.72-1.31-9.08-11.3-15.28-20.06-12.86ZM32.53,188.05c30.87-.01,61.75,0,92.62,0v-4.63c-30.87-.01-61.74.01-92.61-.01,0,1.54,0,3.09,0,4.64ZM32.54,195.17c-.02,1.51-.03,3.03-.06,4.56,30.93.25,61.86-.14,92.8-.06-.01-1.5-.01-3-.01-4.5-30.91,0-61.82.01-92.73,0Z"/>
    <path class="cls-2" d="M35.03,129.92c5.7.02,11.4-.02,17.1,0,5.02-.05,9.82,2.22,13.44,5.62-2.03,2.69-3.54,5.72-4.49,8.96-1.54-2.54-3.94-4.67-6.94-5.21-3.18-.48-6.41-.18-9.62-.24.02,7.62,0,15.25.02,22.88,3.72-.12,7.58.4,11.17-.82,2.31-.79,3.9-2.72,5.42-4.52.93,3.2,2.45,6.18,4.44,8.86-3.5,3.05-7.82,5.28-12.52,5.5-6.01.23-12.02.03-18.02.09-.01-13.7-.01-27.41,0-41.12Z"/>
    <path class="cls-2" d="M65.66,139.13c3.84-6.74,11.75-10.53,19.4-10.08,6.73.19,13.15,3.86,16.76,9.53-2.7,1.59-5.42,3.14-8.11,4.75-3.71-5.65-12.23-6.66-17.39-2.48-5.72,4.72-5.58,14.92.31,19.43,5.19,3.82,13.47,2.86,17.05-2.72,2.72,1.57,5.45,3.13,8.15,4.76-6.35,10.42-21.91,12.55-31.26,5.04-8.4-6.45-10.25-19.29-4.91-28.23Z"/>
    <path class="cls-2" d="M60.09,171.72c2.44-1.27,4.75-2.78,6.8-4.62,1.93,1.78,4.08,3.31,6.28,4.75-4.36-.13-8.72.04-13.08-.13Z"/>
    <path class="cls-3" d="M122.26,99.84c8.76-2.42,18.75,3.78,20.06,12.86,1.9,9.17-5.89,18.59-15.18,18.72-8.82.77-17.37-6.86-17.15-15.8-.3-7.31,5.19-14.18,12.27-15.78ZM123.55,107.25c-5.75,1.54-8.04,9.56-3.83,13.83,4.15,5.11,13.5,3.03,14.95-3.45,2.01-6.35-4.96-12.69-11.12-10.38Z"/>
    <path class="cls-1" d="M123.55,107.25c6.16-2.31,13.13,4.03,11.12,10.38-1.45,6.48-10.8,8.56-14.95,3.45-4.21-4.27-1.92-12.29,3.83-13.83Z"/>
  </g>
</svg>